<?xml version="1.0" standalone="no"?>
<!DOCTYPE svg PUBLIC "-//W3C//DTD SVG 20010904//EN"
 "http://www.w3.org/TR/2001/REC-SVG-20010904/DTD/svg10.dtd">
<svg version="1.0" xmlns="http://www.w3.org/2000/svg"
 width="300.000000pt" height="300.000000pt" viewBox="0 0 300.000000 300.000000"
 preserveAspectRatio="xMidYMid meet">
<metadata>
Created by potrace 1.11, written by Peter Selinger 2001-2013
</metadata>
<g transform="translate(0.000000,300.000000) scale(0.100000,-0.100000)"
fill="#000000" stroke="none">
<path d="M1379 2936 c-2 -2 -29 -7 -59 -10 -85 -10 -100 -13 -170 -31 -350
-90 -644 -299 -844 -599 -113 -170 -193 -378 -221 -569 -3 -20 -7 -54 -10 -74
-8 -52 -8 -237 0 -298 16 -123 32 -196 66 -300 118 -358 377 -659 713 -828 44
-23 83 -42 86 -43 3 0 16 -5 30 -11 29 -12 118 -43 140 -49 93 -23 109 -26
230 -43 93 -13 311 -5 410 14 375 72 690 272 914 582 76 104 176 308 201 408
1 6 5 17 8 25 4 8 14 49 22 90 38 184 40 407 5 580 -6 30 -13 65 -16 78 -23
116 -118 325 -207 457 -69 102 -262 300 -347 356 -82 54 -141 91 -179 111 -38
19 -179 79 -196 82 -5 2 -34 10 -63 19 -30 9 -79 21 -110 27 -32 5 -68 13 -82
15 -29 7 -316 16 -321 11z m297 -219 c5 -3 30 -8 54 -12 162 -23 433 -153 555
-266 80 -74 145 -144 190 -204 216 -291 288 -636 210 -1017 -9 -45 -65 -199
-92 -253 -27 -53 -126 -209 -146 -230 -7 -7 -34 -35 -60 -64 -242 -260 -573
-398 -925 -386 -119 4 -147 8 -287 39 -37 8 -149 53 -223 89 -136 68 -286 187
-397 317 -121 141 -239 398 -261 570 -2 19 -7 51 -10 70 -7 40 -6 242 1 283
20 115 28 152 42 199 9 29 18 55 19 58 1 3 5 16 10 30 15 49 88 186 137 257
181 268 491 465 810 516 79 13 354 16 373 4z"/>
<path d="M790 2259 l0 -129 445 1 c383 0 448 -2 474 -16 37 -19 61 -62 61
-111 0 -42 22 -17 -437 -481 -156 -156 -286 -282 -291 -279 -4 2 -7 146 -7
320 0 174 -2 316 -5 317 -34 5 -233 2 -237 -4 -6 -10 -4 -453 4 -862 3 -171 6
-330 6 -354 l0 -44 209 214 c115 118 371 377 568 576 197 199 372 381 388 405
36 53 62 135 62 198 0 106 -61 235 -142 300 -92 73 -94 73 -625 75 l-473 3 0
-129z"/>
<path d="M1786 1252 c-13 -3 -16 -18 -16 -93 l0 -89 -66 70 c-36 38 -75 79
-85 91 l-20 23 -42 -41 c-23 -22 -64 -61 -90 -86 -41 -38 -47 -48 -38 -64 6
-10 102 -109 213 -221 l203 -202 110 -1 c61 0 144 0 185 1 l75 1 -35 31 c-19
17 -65 59 -101 93 l-66 63 0 206 c0 114 -2 209 -5 211 -6 6 -198 11 -222 7z"/>
<path d="M1203 924 c-5 -14 -7 -48 -4 -81 1 -9 19 -13 55 -13 l55 0 -2 53 -2
52 -48 2 c-35 2 -49 -2 -54 -13z"/>
<path d="M1359 937 c-1 -1 -2 -25 -4 -54 -2 -58 0 -60 70 -55 l42 4 -2 51 -2
52 -52 2 c-28 0 -51 0 -52 0z"/>
<path d="M1205 776 c-2 -6 -3 -31 -2 -55 l2 -45 48 -1 c51 -1 64 10 61 50 -1
11 -2 29 -3 40 -1 17 -8 20 -52 21 -28 0 -52 -4 -54 -10z"/>
<path d="M1356 781 c-2 -6 0 -81 3 -99 0 -4 24 -7 53 -7 l52 1 1 47 c0 26 -2
51 -5 55 -6 8 -100 11 -104 3z"/>
</g>
</svg>
