<?xml version="1.0" standalone="no"?>
<!DOCTYPE svg PUBLIC "-//W3C//DTD SVG 20010904//EN"
 "http://www.w3.org/TR/2001/REC-SVG-20010904/DTD/svg10.dtd">
<svg version="1.0" xmlns="http://www.w3.org/2000/svg"
 width="300.000000pt" height="300.000000pt" viewBox="0 0 300.000000 300.000000"
 preserveAspectRatio="xMidYMid meet">
<metadata>
Created by potrace 1.11, written by Peter Selinger 2001-2013
</metadata>
<g transform="translate(0.000000,300.000000) scale(0.100000,-0.100000)"
fill="#000000" stroke="none">
<path d="M112 1037 l3 -922 125 0 125 0 3 215 2 216 94 93 93 93 93 -219 c51
-120 110 -258 131 -308 l38 -90 130 0 c147 0 139 -7 100 80 -64 143 -310 737
-307 744 2 5 37 46 79 92 41 46 93 103 114 127 21 24 41 39 45 35 4 -4 67
-147 140 -318 74 -171 177 -411 231 -535 l97 -225 44 -1 c50 0 68 4 68 18 0 5
8 28 19 51 10 23 85 202 166 397 82 195 151 358 154 362 4 4 83 -171 175 -390
93 -218 175 -406 181 -418 10 -16 23 -20 60 -19 l47 0 69 160 c38 88 73 169
79 180 8 17 375 862 387 891 6 16 -253 16 -265 0 -5 -6 -39 -83 -77 -171 -37
-88 -76 -180 -88 -205 -11 -25 -50 -117 -88 -204 l-67 -159 -17 39 c-9 21 -77
185 -152 364 -74 179 -139 331 -145 337 -13 17 -173 16 -186 0 -5 -7 -76 -169
-157 -362 -80 -192 -150 -355 -154 -362 -4 -7 -64 122 -141 300 -74 171 -146
340 -162 373 l-27 62 -173 0 -173 0 -227 -227 -228 -226 0 527 0 527 -130 0
-130 0 2 -922z"/>
</g>
</svg>
